<svg width="24" height="24" viewBox="0 0 24 24" fill="none" xmlns="http://www.w3.org/2000/svg">
<rect width="24" height="24" rx="12" fill="#D8D8D8" fill-opacity="0.01"/>
<mask id="mask0" mask-type="alpha" maskUnits="userSpaceOnUse" x="0" y="0" width="24" height="24">
<rect width="24" height="24" rx="12" fill="white"/>
</mask>
<g mask="url(#mask0)">
<rect width="24" height="24" fill="#0093FF"/>
<path fill-rule="evenodd" clip-rule="evenodd" d="M13.4549 13.4545V16.0909C13.4549 16.6432 13.0072 17.0909 12.4549 17.0909H12.2731C11.7208 17.0909 11.2731 16.6432 11.2731 16.0909V13.4545H8.63672C8.08443 13.4545 7.63672 13.0068 7.63672 12.4545V12.2727C7.63672 11.7204 8.08443 11.2727 8.63672 11.2727H11.2731V8.63636C11.2731 8.08408 11.7208 7.63636 12.2731 7.63636H12.4549C13.0072 7.63636 13.4549 8.08408 13.4549 8.63636V11.2727H16.0913C16.6435 11.2727 17.0913 11.7204 17.0913 12.2727V12.4545C17.0913 13.0068 16.6435 13.4545 16.0913 13.4545H13.4549Z" fill="black"/>
<mask id="mask1" mask-type="alpha" maskUnits="userSpaceOnUse" x="7" y="7" width="11" height="11">
<path fill-rule="evenodd" clip-rule="evenodd" d="M13.4549 13.4545V16.0909C13.4549 16.6432 13.0072 17.0909 12.4549 17.0909H12.2731C11.7208 17.0909 11.2731 16.6432 11.2731 16.0909V13.4545H8.63672C8.08443 13.4545 7.63672 13.0068 7.63672 12.4545V12.2727C7.63672 11.7204 8.08443 11.2727 8.63672 11.2727H11.2731V8.63636C11.2731 8.08408 11.7208 7.63636 12.2731 7.63636H12.4549C13.0072 7.63636 13.4549 8.08408 13.4549 8.63636V11.2727H16.0913C16.6435 11.2727 17.0913 11.7204 17.0913 12.2727V12.4545C17.0913 13.0068 16.6435 13.4545 16.0913 13.4545H13.4549Z" fill="white"/>
</mask>
<g mask="url(#mask1)">
<rect x="4" y="4" width="16" height="16" fill="white"/>
</g>
</g>
</svg>
