<svg width="14" height="13" viewBox="0 0 14 13" fill="none" xmlns="http://www.w3.org/2000/svg">
<path fill-rule="evenodd" clip-rule="evenodd" d="M0 1C0 0.447715 0.447715 0 1 0H13C13.5523 0 14 0.447715 14 1V2C14 2.55228 13.5523 3 13 3H1C0.447716 3 0 2.55228 0 2V1ZM2 6C2 5.44772 2.44772 5 3 5H11C11.5523 5 12 5.44772 12 6V7C12 7.55228 11.5523 8 11 8H3C2.44772 8 2 7.55228 2 7V6ZM5 10C4.44772 10 4 10.4477 4 11V12C4 12.5523 4.44772 13 5 13H9C9.55228 13 10 12.5523 10 12V11C10 10.4477 9.55228 10 9 10H5Z" fill="#304156"/>
</svg>
