<svg width="13" height="13" viewBox="0 0 13 13" fill="none" xmlns="http://www.w3.org/2000/svg">
<path fill-rule="evenodd" clip-rule="evenodd" d="M6.5 13C10.0899 13 13 10.0899 13 6.5C13 2.91015 10.0899 0 6.5 0C2.91015 0 0 2.91015 0 6.5C0 10.0899 2.91015 13 6.5 13Z" fill="white"/>
<path fill-rule="evenodd" clip-rule="evenodd" d="M6.50042 10.2147C8.55176 10.2147 10.2147 8.55176 10.2147 6.50042C10.2147 4.44907 8.55176 2.78613 6.50042 2.78613C4.44907 2.78613 2.78613 4.44907 2.78613 6.50042C2.78613 8.55176 4.44907 10.2147 6.50042 10.2147Z" fill="#0093FF"/>
<mask id="mask0" mask-type="alpha" maskUnits="userSpaceOnUse" x="2" y="2" width="9" height="9">
<path fill-rule="evenodd" clip-rule="evenodd" d="M6.50042 10.2147C8.55176 10.2147 10.2147 8.55176 10.2147 6.50042C10.2147 4.44907 8.55176 2.78613 6.50042 2.78613C4.44907 2.78613 2.78613 4.44907 2.78613 6.50042C2.78613 8.55176 4.44907 10.2147 6.50042 10.2147Z" fill="white"/>
</mask>
<g mask="url(#mask0)">
<rect y="0.000488281" width="13" height="13.8667" fill="#0093FF"/>
</g>
<path fill-rule="evenodd" clip-rule="evenodd" d="M13 6.5C13 10.0899 10.0899 13 6.5 13C2.91015 13 0 10.0899 0 6.5C0 2.91015 2.91015 0 6.5 0C10.0899 0 13 2.91015 13 6.5ZM10.2143 6.5C10.2143 8.55134 8.55134 10.2143 6.5 10.2143C4.44866 10.2143 2.78571 8.55134 2.78571 6.5C2.78571 4.44866 4.44866 2.78572 6.5 2.78572C8.55134 2.78572 10.2143 4.44866 10.2143 6.5Z" fill="#E7EDF3"/>
</svg>
