<svg width="22" height="22" viewBox="0 0 22 22" fill="none" xmlns="http://www.w3.org/2000/svg">
<mask id="iconcheckbox" mask-type="alpha" maskUnits="userSpaceOnUse" x="2" y="2" width="18" height="18">
<path fill-rule="evenodd" clip-rule="evenodd" d="M10.991 2C6.023 2 2 6.032 2 11C2 15.968 6.023 20 10.991 20C15.968 20 20 15.968 20 11C20 9.33785 19.5487 7.78047 18.7616 6.44382C18.7453 6.41295 18.7274 6.38276 18.7076 6.35338C17.1303 3.74494 14.2651 2 10.991 2ZM16.7316 6.64051C15.4166 4.91393 13.339 3.8 11 3.8C7.022 3.8 3.8 7.022 3.8 11C3.8 14.978 7.022 18.2 11 18.2C14.978 18.2 18.2 14.978 18.2 11C18.2 10.1061 18.0373 9.2503 17.7399 8.4607L11.8661 14.3344L11.159 15.0415L10.4519 14.3344L6.91637 10.7989C6.52584 10.4084 6.52584 9.77521 6.91637 9.38469C7.30689 8.99417 7.94006 8.99417 8.33058 9.38469L11.159 12.2131L16.7316 6.64051Z" fill="black"/>
</mask>
<g mask="url(#iconcheckbox)">
<rect width="22" height="22" fill="#475F7B"/>
</g>
</svg>
