<svg width="22" height="22" viewBox="0 0 22 22" fill="none" xmlns="http://www.w3.org/2000/svg">
<path fill-rule="evenodd" clip-rule="evenodd" d="M17 11C17 10.6318 16.7015 10.3333 16.3333 10.3333H7.55333L9.47098 8.41033C9.73012 8.15047 9.72983 7.72983 9.47033 7.47033C9.21057 7.21057 8.78943 7.21057 8.52967 7.47033L5 11L8.52967 14.5297C8.78943 14.7894 9.21057 14.7894 9.47033 14.5297C9.72983 14.2702 9.73012 13.8495 9.47098 13.5897L7.55333 11.6667H16.3333C16.7015 11.6667 17 11.3682 17 11Z" fill="black" fill-opacity="0.7"/>
<mask id="mask0" mask-type="alpha" maskUnits="userSpaceOnUse" x="5" y="7" width="12" height="8">
<path fill-rule="evenodd" clip-rule="evenodd" d="M17 11C17 10.6318 16.7015 10.3333 16.3333 10.3333H7.55333L9.47098 8.41033C9.73012 8.15047 9.72983 7.72983 9.47033 7.47033C9.21057 7.21057 8.78943 7.21057 8.52967 7.47033L5 11L8.52967 14.5297C8.78943 14.7894 9.21057 14.7894 9.47033 14.5297C9.72983 14.2702 9.73012 13.8495 9.47098 13.5897L7.55333 11.6667H16.3333C16.7015 11.6667 17 11.3682 17 11Z" fill="white"/>
</mask>
<g mask="url(#mask0)">
<rect width="22" height="22" fill="white"/>
</g>
</svg>
