<svg width="16" height="16" viewBox="0 0 16 16" fill="none" xmlns="http://www.w3.org/2000/svg">
<path fill-rule="evenodd" clip-rule="evenodd" d="M5.818 3.63641V2.90914C5.818 2.1055 6.46891 1.45459 7.27255 1.45459H8.7271C9.53073 1.45459 10.1816 2.1055 10.1816 2.90914V3.63641H13.0907C13.4922 3.63641 13.818 3.96223 13.818 4.36368C13.818 4.76514 13.4922 5.09095 13.0907 5.09095V12.3637C13.0907 13.5688 12.114 14.5455 10.9089 14.5455H5.09073C3.88564 14.5455 2.90891 13.5688 2.90891 12.3637V5.09095C2.50746 5.09095 2.18164 4.76514 2.18164 4.36368C2.18164 3.96223 2.50746 3.63641 2.90891 3.63641H5.818ZM7.27255 3.63641H8.7271V2.90914H7.27255V3.63641ZM4.36346 12.3637V5.09095H11.6362V12.3637C11.6362 12.7651 11.3104 13.091 10.9089 13.091H5.09073C4.68928 13.091 4.36346 12.7651 4.36346 12.3637Z" fill="black"/>
<mask id="mask0" mask-type="alpha" maskUnits="userSpaceOnUse" x="2" y="1" width="12" height="14">
<path fill-rule="evenodd" clip-rule="evenodd" d="M5.818 3.63641V2.90914C5.818 2.1055 6.46891 1.45459 7.27255 1.45459H8.7271C9.53073 1.45459 10.1816 2.1055 10.1816 2.90914V3.63641H13.0907C13.4922 3.63641 13.818 3.96223 13.818 4.36368C13.818 4.76514 13.4922 5.09095 13.0907 5.09095V12.3637C13.0907 13.5688 12.114 14.5455 10.9089 14.5455H5.09073C3.88564 14.5455 2.90891 13.5688 2.90891 12.3637V5.09095C2.50746 5.09095 2.18164 4.76514 2.18164 4.36368C2.18164 3.96223 2.50746 3.63641 2.90891 3.63641H5.818ZM7.27255 3.63641H8.7271V2.90914H7.27255V3.63641ZM4.36346 12.3637V5.09095H11.6362V12.3637C11.6362 12.7651 11.3104 13.091 10.9089 13.091H5.09073C4.68928 13.091 4.36346 12.7651 4.36346 12.3637Z" fill="white"/>
</mask>
<g mask="url(#mask0)">
<rect width="16" height="16" fill="#475F7B"/>
</g>
</svg>
