<svg width="27" height="32" viewBox="0 0 27 32" fill="none" xmlns="http://www.w3.org/2000/svg">
<path d="M1.5 1.77778C1.5 0.795939 2.29594 0 3.27778 0H20.1667L23.2778 3.11111L25.5 5.33333V30.2222C25.5 31.2041 24.7041 32 23.7222 32H3.27778C2.29594 32 1.5 31.2041 1.5 30.2222V1.77778Z" fill="white"/>
<path fill-rule="evenodd" clip-rule="evenodd" d="M20.8086 0H3.27778C2.29594 0 1.5 0.795939 1.5 1.77778V30.2222C1.5 31.2041 2.29594 32 3.27778 32H23.7222C24.7041 32 25.5 31.2041 25.5 30.2222V4.44442L20.8086 0ZM24.2076 4.44441L21.0556 1.45833V3.55552C21.0556 4.04644 21.4535 4.44441 21.9444 4.44441H24.2076ZM24.6111 5.33333V30.2222C24.6111 30.7132 24.2132 31.1111 23.7222 31.1111H3.27778C2.78685 31.1111 2.38889 30.7132 2.38889 30.2222V1.77778C2.38889 1.28686 2.78685 0.888889 3.27778 0.888889H20.1667V3.55556C20.1667 4.5374 20.9626 5.33333 21.9444 5.33333H24.6111Z" fill="#F2F4F4"/>
<path fill-rule="evenodd" clip-rule="evenodd" d="M19.8664 20.0953C19.6147 19.8473 19.0557 19.7159 18.2056 19.7048C17.6302 19.6981 16.9375 19.7493 16.2091 19.851C15.8832 19.6624 15.5468 19.4583 15.2825 19.211C14.5727 18.548 13.9795 17.6274 13.6105 16.6162C13.6343 16.5219 13.6551 16.4387 13.6744 16.3541C13.6744 16.3541 14.0746 14.0822 13.9684 13.3145C13.9535 13.209 13.9446 13.1786 13.9164 13.0969L13.8815 13.0078C13.7724 12.7569 13.5593 12.4911 13.2252 12.5059L13.0292 12.5H13.0232C12.6505 12.5 12.3461 12.6908 12.2667 12.9759C12.0239 13.8698 12.2674 15.2107 12.7277 16.9399L12.6119 17.222C12.2875 18.0135 11.8806 18.8109 11.5213 19.514L11.4745 19.6053C11.0966 20.344 10.7543 20.9721 10.4432 21.503L10.1225 21.6723L10.0692 21.7006C9.92373 21.7779 9.52722 21.9885 9.42011 22.0531C8.32648 22.7065 7.60184 23.4475 7.48157 24.0362C7.44296 24.2241 7.47192 24.4639 7.66644 24.5753L7.97678 24.7312C8.11117 24.7987 8.25298 24.8329 8.3985 24.8329C9.17733 24.8329 10.0816 23.8625 11.3282 21.6879C12.7671 21.2194 14.4042 20.8303 15.8401 20.6158C16.9337 21.232 18.2791 21.6596 19.1284 21.6596C19.2791 21.6596 19.4091 21.6455 19.5145 21.6173C19.6771 21.5743 19.8145 21.4815 19.8984 21.3552C20.0632 21.1073 20.0966 20.7657 20.052 20.416C20.0387 20.3121 19.9555 20.1836 19.8664 20.096V20.0953ZM8.2307 24.2412C8.37251 23.8529 8.93529 23.0852 9.76684 22.4036C9.81881 22.3613 9.948 22.2402 10.066 22.1281C9.19663 23.515 8.61455 24.0674 8.23144 24.2412H8.2307ZM13.5608 14.1237C13.5489 13.532 13.4063 12.9009 13.1561 12.9009C13.0411 12.9009 13.0515 13.7971 13.0515 13.7971C13.0515 14.2656 13.1198 14.9828 13.2623 15.4379C13.4338 15.1305 13.5727 14.7155 13.5608 14.1237ZM11.6868 20.9825C11.8613 20.67 12.0425 20.341 12.2281 19.9914C12.6802 19.136 12.9653 18.4671 13.1784 17.9177C13.6016 18.6869 14.128 19.341 14.7472 19.8651C14.8244 19.9305 14.9061 19.9966 14.9922 20.0619C13.733 20.3114 12.6446 20.6143 11.6868 20.9825ZM19.1878 20.987C19.3289 20.987 19.5487 20.9595 19.6251 20.9113V20.9105C19.7016 20.863 19.6957 20.6313 19.2487 20.517C18.8102 20.4048 18.6712 20.4049 18.2343 20.4049L18.2085 20.4049C17.9591 20.4049 17.6799 20.4168 17.3762 20.4391C18.1677 20.7784 18.732 20.987 19.1878 20.987Z" fill="#FF3100"/>
</svg>
