<svg width="27" height="32" viewBox="0 0 27 32" fill="none" xmlns="http://www.w3.org/2000/svg">
<path d="M1.5 1.77778C1.5 0.795939 2.29594 0 3.27778 0H20.1667L23.2778 3.11111L25.5 5.33333V30.2222C25.5 31.2041 24.7041 32 23.7222 32H3.27778C2.29594 32 1.5 31.2041 1.5 30.2222V1.77778Z" fill="white"/>
<path fill-rule="evenodd" clip-rule="evenodd" d="M20.8086 0H3.27778C2.29594 0 1.5 0.795939 1.5 1.77778V30.2222C1.5 31.2041 2.29594 32 3.27778 32H23.7222C24.7041 32 25.5 31.2041 25.5 30.2222V4.44442L20.8086 0ZM24.2076 4.44441L21.0556 1.45833V3.55552C21.0556 4.04644 21.4535 4.44441 21.9444 4.44441H24.2076ZM24.6111 5.33333V30.2222C24.6111 30.7132 24.2132 31.1111 23.7222 31.1111H3.27778C2.78685 31.1111 2.38889 30.7132 2.38889 30.2222V1.77778C2.38889 1.28686 2.78685 0.888889 3.27778 0.888889H20.1667V3.55556C20.1667 4.5374 20.9626 5.33333 21.9444 5.33333H24.6111Z" fill="#F2F4F4"/>
<path d="M19 11.4999H8C7.4375 11.4999 7 11.9763 7 12.5889V23.4789C7 24.0234 7.4375 24.4999 8 24.4999H16.1875L20 20.4161V12.5889C20 11.9763 19.5625 11.4999 19 11.4999Z" fill="#0376E3"/>
<path fill-rule="evenodd" clip-rule="evenodd" d="M9 15.9999H18V16.9999H9V15.9999ZM9 17.9999H18V18.9999H9V17.9999ZM15 19.9999H9V20.9999H15V19.9999Z" fill="white"/>
</svg>
