<svg width="10" height="10" viewBox="0 0 11 11" fill="none" xmlns="http://www.w3.org/2000/svg">
<path fill-rule="evenodd" clip-rule="evenodd" d="M10.3421 2.14984C10.6265 1.8662 10.6265 1.40511 10.3421 1.12148C10.0585 0.837112 9.59809 0.837112 9.31373 1.12148L5.73263 4.70257L2.15082 1.12148C1.86718 0.837112 1.40609 0.837112 1.12245 1.12148C0.838089 1.40511 0.838089 1.8662 1.12245 2.14984L4.70354 5.73166L1.12245 9.31275C0.838089 9.59711 0.838089 10.0575 1.12245 10.3411C1.40609 10.6255 1.86718 10.6255 2.15082 10.3411L5.73263 6.76002L9.31373 10.3411C9.59809 10.6255 10.0585 10.6255 10.3421 10.3411C10.6265 10.0575 10.6265 9.59711 10.3421 9.31275L6.761 5.73166L10.3421 2.14984Z" fill="#475F7B"/>
</svg>
