<svg width="18" height="18" viewBox="0 0 18 18" fill="none" xmlns="http://www.w3.org/2000/svg">
<path fill-rule="evenodd" clip-rule="evenodd" d="M18 9C18 13.971 13.9706 18 9 18C4.0294 18 0 13.971 0 9C0 4.029 4.0294 0 9 0C13.9706 0 18 4.029 18 9ZM16 9C16 12.866 12.866 16 9 16C5.134 16 2 12.866 2 9C2 5.134 5.134 2 9 2C12.866 2 16 5.134 16 9ZM10 13C10 13.552 9.5523 14 9 14C8.4477 14 8 13.552 8 13V8C8 7.448 8.4477 7 9 7C9.5523 7 10 7.448 10 8V13ZM9 4C8.4477 4 8 4.448 8 5C8 5.552 8.4477 6 9 6C9.5523 6 10 5.552 10 5C10 4.448 9.5523 4 9 4Z" fill="#475F7B"/>
</svg>
