<svg width="16" height="16" viewBox="0 0 16 16" fill="none" xmlns="http://www.w3.org/2000/svg">
<path fill-rule="evenodd" clip-rule="evenodd" d="M4.21373 0C3.70782 0 3.2977 0.4101 3.2977 0.916029V11.7862C3.2977 12.2921 3.70782 12.7022 4.21373 12.7022H15.084C15.5899 12.7022 16 12.2921 16 11.7862V0.916029C16 0.4101 15.5899 0 15.084 0H4.21373ZM0.916029 2.44276C1.42193 2.44276 1.83206 2.85286 1.83206 3.35879V13.2519C1.83206 13.7578 2.24218 14.1679 2.74809 14.1679H12.6412C13.1471 14.1679 13.5572 14.578 13.5572 15.084C13.5572 15.5899 13.1471 16 12.6412 16H2.74809C1.23036 16 0 14.7696 0 13.2519V3.35879C0 2.85286 0.410121 2.44276 0.916029 2.44276Z" fill="#475F7B"/>
</svg>
