<svg width="172" height="64" viewBox="0 0 172 64" fill="none" xmlns="http://www.w3.org/2000/svg">
<rect x="16" y="17" width="32" height="32" rx="4" fill="#2F54EB"/>
<path fill-rule="evenodd" clip-rule="evenodd" d="M32.1311 25H24V31.4001H26.0984V27.1335H31.8689H32.1311H32.2623V27.1349C35.3887 27.2058 37.9016 29.8046 37.9016 33.0001C37.9016 36.1956 35.3887 38.7944 32.2623 38.8653V38.8668H32.1311H31.8689H26.0984H24V41H32.1311C36.477 41 40 37.4183 40 33C40 28.5817 36.477 25 32.1311 25Z" fill="#F0F5FF"/>
<path d="M26.0984 29.2666H31.7377V31.3999H26.0984V29.2666Z" fill="#F0F5FF"/>
<path d="M24 32.1999H31.7377V34.3333H24V32.1999Z" fill="#F0F5FF"/>
<path d="M24 35.3999H31.7377V37.5333H24V35.3999Z" fill="#F0F5FF"/>
<path d="M57.1426 39V26.2031H61.0801C62.2051 26.2031 63.21 26.458 64.0947 26.9678C64.9854 27.4717 65.6797 28.1924 66.1777 29.1299C66.6758 30.0615 66.9248 31.1221 66.9248 32.3115V32.9004C66.9248 34.0898 66.6787 35.1475 66.1865 36.0732C65.7002 36.999 65.0117 37.7168 64.1211 38.2266C63.2305 38.7363 62.2256 38.9941 61.1064 39H57.1426ZM59.7793 28.3389V36.8818H61.0537C62.085 36.8818 62.873 36.5449 63.418 35.8711C63.9629 35.1973 64.2412 34.2334 64.2529 32.9795V32.3027C64.2529 31.002 63.9834 30.0176 63.4443 29.3496C62.9053 28.6758 62.1172 28.3389 61.0801 28.3389H59.7793ZM68.2871 34.1572C68.2871 33.2139 68.4688 32.373 68.832 31.6348C69.1953 30.8965 69.7168 30.3252 70.3965 29.9209C71.082 29.5166 71.876 29.3145 72.7783 29.3145C74.0615 29.3145 75.1074 29.707 75.916 30.4922C76.7305 31.2773 77.1846 32.3438 77.2783 33.6914L77.2959 34.3418C77.2959 35.8008 76.8887 36.9727 76.0742 37.8574C75.2598 38.7363 74.167 39.1758 72.7959 39.1758C71.4248 39.1758 70.3291 38.7363 69.5088 37.8574C68.6943 36.9785 68.2871 35.7832 68.2871 34.2715V34.1572ZM70.8271 34.3418C70.8271 35.2441 70.9971 35.9355 71.3369 36.416C71.6768 36.8906 72.1631 37.1279 72.7959 37.1279C73.4111 37.1279 73.8916 36.8936 74.2373 36.4248C74.583 35.9502 74.7559 35.1943 74.7559 34.1572C74.7559 33.2725 74.583 32.5869 74.2373 32.1006C73.8916 31.6143 73.4053 31.3711 72.7783 31.3711C72.1572 31.3711 71.6768 31.6143 71.3369 32.1006C70.9971 32.5811 70.8271 33.3281 70.8271 34.3418ZM82.8154 37.1279C83.2842 37.1279 83.665 36.999 83.958 36.7412C84.251 36.4834 84.4033 36.1406 84.415 35.7129H86.7969C86.791 36.3574 86.6152 36.9492 86.2695 37.4883C85.9238 38.0215 85.4492 38.4375 84.8457 38.7363C84.248 39.0293 83.5859 39.1758 82.8594 39.1758C81.5 39.1758 80.4277 38.7451 79.6426 37.8838C78.8574 37.0166 78.4648 35.8213 78.4648 34.2979V34.1309C78.4648 32.666 78.8545 31.4971 79.6338 30.624C80.4131 29.751 81.4824 29.3145 82.8418 29.3145C84.0312 29.3145 84.9834 29.6543 85.6982 30.334C86.4189 31.0078 86.7852 31.9072 86.7969 33.0322H84.415C84.4033 32.54 84.251 32.1416 83.958 31.8369C83.665 31.5264 83.2783 31.3711 82.7979 31.3711C82.2061 31.3711 81.7578 31.5879 81.4531 32.0215C81.1543 32.4492 81.0049 33.1465 81.0049 34.1133V34.377C81.0049 35.3555 81.1543 36.0586 81.4531 36.4863C81.752 36.9141 82.2061 37.1279 82.8154 37.1279ZM93.3975 36.3721C93.3975 36.0615 93.2422 35.8184 92.9316 35.6426C92.627 35.4609 92.1348 35.2998 91.4551 35.1592C89.1934 34.6846 88.0625 33.7236 88.0625 32.2764C88.0625 31.4326 88.4111 30.7295 89.1084 30.167C89.8115 29.5986 90.7285 29.3145 91.8594 29.3145C93.0664 29.3145 94.0303 29.5986 94.751 30.167C95.4775 30.7354 95.8408 31.4736 95.8408 32.3818H93.3008C93.3008 32.0186 93.1836 31.7197 92.9492 31.4854C92.7148 31.2451 92.3486 31.125 91.8506 31.125C91.4229 31.125 91.0918 31.2217 90.8574 31.415C90.623 31.6084 90.5059 31.8545 90.5059 32.1533C90.5059 32.4346 90.6377 32.6631 90.9014 32.8389C91.1709 33.0088 91.6221 33.1582 92.2549 33.2871C92.8877 33.4102 93.4209 33.5508 93.8545 33.709C95.1963 34.2012 95.8672 35.0537 95.8672 36.2666C95.8672 37.1338 95.4951 37.8369 94.751 38.376C94.0068 38.9092 93.0459 39.1758 91.8682 39.1758C91.0713 39.1758 90.3623 39.0352 89.7412 38.7539C89.126 38.4668 88.6426 38.0771 88.291 37.585C87.9395 37.0869 87.7637 36.5508 87.7637 35.9766H90.1719C90.1953 36.4277 90.3623 36.7734 90.6729 37.0137C90.9834 37.2539 91.3994 37.374 91.9209 37.374C92.4072 37.374 92.7734 37.2832 93.0195 37.1016C93.2715 36.9141 93.3975 36.6709 93.3975 36.3721ZM104.313 35.6426C104.313 35.1445 104.138 34.7637 103.786 34.5C103.435 34.2305 102.802 33.9492 101.888 33.6562C100.974 33.3574 100.25 33.0645 99.7168 32.7773C98.2637 31.9922 97.5371 30.9346 97.5371 29.6045C97.5371 28.9131 97.7305 28.2979 98.1172 27.7588C98.5098 27.2139 99.0693 26.7891 99.7959 26.4844C100.528 26.1797 101.349 26.0273 102.257 26.0273C103.171 26.0273 103.985 26.1943 104.7 26.5283C105.415 26.8564 105.969 27.3223 106.361 27.9258C106.76 28.5293 106.959 29.2148 106.959 29.9824H104.322C104.322 29.3965 104.138 28.9424 103.769 28.6201C103.399 28.292 102.881 28.1279 102.213 28.1279C101.568 28.1279 101.067 28.2656 100.71 28.541C100.353 28.8105 100.174 29.168 100.174 29.6133C100.174 30.0293 100.382 30.3779 100.798 30.6592C101.22 30.9404 101.838 31.2041 102.652 31.4502C104.152 31.9014 105.245 32.4609 105.931 33.1289C106.616 33.7969 106.959 34.6289 106.959 35.625C106.959 36.7324 106.54 37.6025 105.702 38.2354C104.864 38.8623 103.736 39.1758 102.318 39.1758C101.334 39.1758 100.438 38.9971 99.6289 38.6396C98.8203 38.2764 98.2021 37.7812 97.7744 37.1543C97.3525 36.5273 97.1416 35.8008 97.1416 34.9746H99.7871C99.7871 36.3867 100.631 37.0928 102.318 37.0928C102.945 37.0928 103.435 36.9668 103.786 36.7148C104.138 36.457 104.313 36.0996 104.313 35.6426ZM111.626 27.1523V29.4902H113.252V31.3535H111.626V36.0996C111.626 36.4512 111.693 36.7031 111.828 36.8555C111.963 37.0078 112.221 37.084 112.602 37.084C112.883 37.084 113.132 37.0635 113.349 37.0225V38.9473C112.851 39.0996 112.338 39.1758 111.811 39.1758C110.029 39.1758 109.121 38.2764 109.086 36.4775V31.3535H107.697V29.4902H109.086V27.1523H111.626ZM120.011 31.8721C119.665 31.8252 119.36 31.8018 119.097 31.8018C118.136 31.8018 117.506 32.127 117.207 32.7773V39H114.667V29.4902H117.066L117.137 30.624C117.646 29.751 118.353 29.3145 119.255 29.3145C119.536 29.3145 119.8 29.3525 120.046 29.4287L120.011 31.8721ZM125.442 39.1758C124.048 39.1758 122.911 38.748 122.032 37.8926C121.159 37.0371 120.723 35.8975 120.723 34.4736V34.2275C120.723 33.2725 120.907 32.4199 121.276 31.6699C121.646 30.9141 122.167 30.334 122.841 29.9297C123.521 29.5195 124.294 29.3145 125.161 29.3145C126.462 29.3145 127.484 29.7246 128.229 30.5449C128.979 31.3652 129.354 32.5283 129.354 34.0342V35.0713H123.298C123.38 35.6924 123.626 36.1904 124.036 36.5654C124.452 36.9404 124.977 37.1279 125.609 37.1279C126.588 37.1279 127.353 36.7734 127.903 36.0645L129.151 37.4619C128.771 38.001 128.255 38.4229 127.604 38.7275C126.954 39.0264 126.233 39.1758 125.442 39.1758ZM125.152 31.3711C124.648 31.3711 124.238 31.541 123.922 31.8809C123.611 32.2207 123.412 32.707 123.324 33.3398H126.857V33.1377C126.846 32.5752 126.693 32.1416 126.4 31.8369C126.107 31.5264 125.691 31.3711 125.152 31.3711ZM136.314 39C136.197 38.7715 136.112 38.4873 136.06 38.1475C135.444 38.833 134.645 39.1758 133.66 39.1758C132.729 39.1758 131.955 38.9062 131.34 38.3672C130.73 37.8281 130.426 37.1484 130.426 36.3281C130.426 35.3203 130.798 34.5469 131.542 34.0078C132.292 33.4688 133.373 33.1963 134.785 33.1904H135.954V32.6455C135.954 32.2061 135.84 31.8545 135.611 31.5908C135.389 31.3271 135.034 31.1953 134.548 31.1953C134.12 31.1953 133.783 31.2979 133.537 31.5029C133.297 31.708 133.177 31.9893 133.177 32.3467H130.637C130.637 31.7959 130.807 31.2861 131.146 30.8174C131.486 30.3486 131.967 29.9824 132.588 29.7188C133.209 29.4492 133.906 29.3145 134.68 29.3145C135.852 29.3145 136.78 29.6104 137.466 30.2021C138.157 30.7881 138.503 31.6143 138.503 32.6807V36.8027C138.509 37.7051 138.635 38.3877 138.881 38.8506V39H136.314ZM134.214 37.2334C134.589 37.2334 134.935 37.1514 135.251 36.9873C135.567 36.8174 135.802 36.5918 135.954 36.3105V34.6758H135.005C133.733 34.6758 133.057 35.1152 132.975 35.9941L132.966 36.1436C132.966 36.46 133.077 36.7207 133.3 36.9258C133.522 37.1309 133.827 37.2334 134.214 37.2334ZM142.836 29.4902L142.915 30.5537C143.589 29.7275 144.5 29.3145 145.648 29.3145C146.873 29.3145 147.714 29.7979 148.171 30.7646C148.839 29.7979 149.791 29.3145 151.027 29.3145C152.059 29.3145 152.826 29.6162 153.33 30.2197C153.834 30.8174 154.086 31.7197 154.086 32.9268V39H151.537V32.9355C151.537 32.3965 151.432 32.0039 151.221 31.7578C151.01 31.5059 150.638 31.3799 150.104 31.3799C149.343 31.3799 148.815 31.7432 148.522 32.4697L148.531 39H145.991V32.9443C145.991 32.3936 145.883 31.9951 145.666 31.749C145.449 31.5029 145.08 31.3799 144.559 31.3799C143.838 31.3799 143.316 31.6787 142.994 32.2764V39H140.454V29.4902H142.836Z" fill="#2F54EB"/>
</svg>
