<svg width="26" height="14" viewBox="0 0 26 14" fill="none" xmlns="http://www.w3.org/2000/svg">
<path d="M4.86575 0.276855H12.4693L12.7021 3.30106H12.3629C12.1544 2.28861 11.8783 1.58788 11.5346 1.19875C11.1909 0.809733 10.7397 0.615053 10.1809 0.615053H9.45586V8.8321H11.0524V9.17029H6.28264V8.8321H7.87924V0.615053H7.15411C6.5953 0.615053 6.14401 0.809733 5.80035 1.19875C5.45669 1.58788 5.18058 2.28861 4.97213 3.30106H4.6329L4.86575 0.276855ZM13.5305 0.276855H21.1341L21.3668 3.30106H21.0276C20.819 2.28861 20.543 1.58788 20.1993 1.19875C19.8556 0.809733 19.4044 0.615053 18.8456 0.615053H18.1206V8.8321H19.7171V9.17029H14.9473V8.8321H16.544V0.615053H15.8188C15.26 0.615053 14.8087 0.809733 14.4651 1.19875C14.1213 1.58788 13.8452 2.28861 13.6368 3.30106H13.2976L13.5305 0.276855ZM0.675881 13.7449H0.939163V13.8914H0.131268V13.7449H0.394549V11.9764H0.131268V11.8285H0.939163V11.9764H0.675881V13.7449ZM1.24293 13.8914V13.7449H1.52154V11.9764H1.24293V11.8285H1.77369L3.01415 13.4562V11.9764H2.7369V11.8285H3.46317V11.9764H3.18456V13.9316H3.01687L1.69195 12.1933V13.7449H1.97056V13.8914H1.24293ZM4.13822 13.8914V13.7449H4.40297V11.993H3.79456V12.3148H3.62403V11.8285H5.46178V12.3148H5.29125V11.993H4.68283V13.7449H4.94759V13.8914H4.13822ZM5.65461 13.8914V13.7449H5.91789V11.9764H5.65461V11.8285H7.32047V12.2872H7.14994V11.9985H6.19922V12.6894H6.87701V12.431H7.04742V13.1162H6.87701V12.8579H6.19922V13.7215H7.17219V13.4327H7.34261V13.8914H5.65461ZM8.27966 12.7846H8.68849C8.82802 12.7846 8.93099 12.7518 8.99752 12.6859C9.06405 12.6201 9.09732 12.5181 9.09732 12.3799C9.09732 12.2417 9.06405 12.1399 8.99752 12.0746C8.93099 12.0091 8.82802 11.9764 8.68849 11.9764H8.27966V12.7846ZM8.93792 12.8675C9.00263 12.8851 9.05826 12.9148 9.10492 12.9567C9.15158 12.9987 9.19336 13.0573 9.23038 13.1328L9.53112 13.7449H9.78339V13.8914H9.29554L8.97266 13.2351C8.91067 13.108 8.8539 13.0258 8.80213 12.9885C8.75036 12.9512 8.67929 12.9326 8.58869 12.9326H8.27966V13.7449H8.57212V13.8914H7.73504V13.7449H7.99832V11.9764H7.73504V11.8286H8.78408C8.98549 11.8286 9.14091 11.8765 9.25047 11.9722C9.35992 12.0681 9.41464 12.2039 9.41464 12.3799C9.41464 12.5217 9.37468 12.6334 9.29486 12.7149C9.21494 12.7964 9.09595 12.8473 8.93792 12.8675ZM9.86257 13.8914V13.7449H10.1412V11.9764H9.86257V11.8285H10.3933L11.6337 13.4562V11.9764H11.3565V11.8285H12.0828V11.9764H11.8042V13.9316H11.6365L10.3116 12.1933V13.7449H10.5902V13.8914H9.86257ZM12.7842 13.1439H13.5437L13.164 12.163L12.7842 13.1439ZM12.1994 13.8913V13.745H12.381L13.1183 11.8285H13.3511L14.0897 13.745H14.2935V13.8913H13.541V13.745H13.7709L13.5978 13.2918H12.7274L12.5542 13.745H12.7815V13.8913H12.1994ZM14.661 13.8914V13.7449H14.9257V11.993H14.3174V12.3148H14.1468V11.8285H15.9845V12.3148H15.8141V11.993H15.2056V13.7449H15.4704V13.8914H14.661ZM16.7219 13.7449H16.9852V13.8914H16.1773V13.7449H16.4404V11.9764H16.1773V11.8285H16.9852V11.9764H16.7219V13.7449ZM18.3146 13.7836C18.5409 13.7836 18.7118 13.706 18.8274 13.5508C18.9429 13.3956 19.0005 13.166 19.0005 12.862C19.0005 12.5571 18.9429 12.3272 18.8274 12.172C18.7118 12.0168 18.5409 11.939 18.3146 11.939C18.0873 11.939 17.9158 12.0168 17.8005 12.172C17.6849 12.3272 17.6271 12.5571 17.6271 12.862C17.6271 13.166 17.6849 13.3956 17.8005 13.5508C17.9158 13.706 18.0873 13.7836 18.3146 13.7836ZM18.3146 13.9316C18.1741 13.9316 18.045 13.9085 17.9272 13.8623C17.8095 13.8163 17.7057 13.7486 17.6161 13.6592C17.5126 13.5561 17.4357 13.4391 17.3853 13.3084C17.3349 13.1776 17.3097 13.0288 17.3097 12.862C17.3097 12.6953 17.3349 12.5463 17.3853 12.4151C17.4357 12.2838 17.5126 12.1667 17.6161 12.0635C17.7066 11.9732 17.8101 11.9052 17.9265 11.8597C18.0429 11.8141 18.1723 11.7913 18.3146 11.7913C18.6147 11.7913 18.8574 11.8893 19.0422 12.0856C19.2269 12.2816 19.3193 12.5406 19.3193 12.862C19.3193 13.0269 19.2939 13.1755 19.2431 13.3077C19.1923 13.4399 19.1152 13.557 19.0117 13.6592C18.9212 13.7496 18.8176 13.8175 18.7011 13.8631C18.5848 13.9087 18.4559 13.9316 18.3146 13.9316ZM19.6245 13.8914V13.7449H19.903V11.9764H19.6245V11.8285H20.1554L21.3957 13.4562V11.9764H21.1185V11.8285H21.8447V11.9764H21.5661V13.9316H21.3984L20.0735 12.1933V13.7449H20.352V13.8914H19.6245ZM22.5462 13.1439H23.3057L22.9259 12.163L22.5462 13.1439ZM21.9614 13.8913V13.745H22.1428L22.8801 11.8285H23.1129L23.8517 13.745H24.0554V13.8913H23.3029V13.745H23.5329L23.3598 13.2918H22.4894L22.3162 13.745H22.5435V13.8913H21.9614ZM24.1928 13.8914V13.7449H24.4562V11.9764H24.1928V11.8285H25.0009V11.9764H24.7376V13.7215H25.6827V13.376H25.8533V13.8914H24.1928ZM25.8729 10.745H0.126953V10.5752H25.8729V10.745Z" fill="white"/>
</svg>
